HIERARCHY
ROOT hip
{
  OFFSET 0 0 0
  CHANNELS 6 Xposition Yposition Zposition Zrotation Yrotation Xrotation
  JOINT abdomen
  {
    OFFSET 0 20.6881 -0.73152
    CHANNELS 3 Zrotation Xrotation Yrotation
    JOINT chest
    {
      OFFSET 0 11.7043 -0.48768
      CHANNELS 3 Zrotation Xrotation Yrotation
      JOINT neck
      {
        OFFSET 0 22.1894 -2.19456
        CHANNELS 3 Zrotation Xrotation Yrotation
        JOINT head
        {
          OFFSET -0.24384 7.07133 1.2192
          CHANNELS 3 Zrotation Xrotation Yrotation
          JOINT leftEye
          {
            OFFSET 4.14528 8.04674 8.04672
            CHANNELS 3 Zrotation Xrotation Yrotation
            End Site
            {
              OFFSET 1 0 0
            }
          }
          JOINT rightEye
          {
            OFFSET -3.6576 8.04674 8.04672
            CHANNELS 3 Zrotation Xrotation Yrotation
            End Site
            {
              OFFSET 1 0 0
            }
          }
        }
      }
      JOINT rCollar
      {
        OFFSET -2.68224 19.2634 -4.8768
        CHANNELS 3 Zrotation Xrotation Yrotation
        JOINT rShldr
        {
          OFFSET -8.77824 -1.95073 1.46304
          CHANNELS 3 Zrotation Xrotation Yrotation
          JOINT rForeArm
          {
            OFFSET -28.1742 -1.7115 0.48768
            CHANNELS 3 Zrotation Xrotation Yrotation
            JOINT rHand
            {
              OFFSET -22.5879 0.773209 7.07136
              CHANNELS 3 Zrotation Xrotation Yrotation
              JOINT rThumb1
              {
                OFFSET -1.2192 -0.487915 3.41376
                CHANNELS 3 Zrotation Xrotation Yrotation
                JOINT rThumb2
                {
                  OFFSET -3.37035 -0.52449 3.41376
                  CHANNELS 3 Zrotation Xrotation Yrotation
                  End Site
                  {
                    OFFSET -1.78271 -1.18214 1.43049
                  }
                }
              }
              JOINT rIndex1
              {
                OFFSET -7.75947 0.938293 5.60832
                CHANNELS 3 Zrotation Xrotation Yrotation
                JOINT rIndex2
                {
                  OFFSET -2.54057 -0.884171 1.56538
                  CHANNELS 3 Zrotation Xrotation Yrotation
                  End Site
                  {
                    OFFSET -1.62519 -0.234802 1.16502
                  }
                }
              }
              JOINT rMid1
              {
                OFFSET -8.24714 1.18213 3.41376
                CHANNELS 3 Zrotation Xrotation Yrotation
                JOINT rMid2
                {
                  OFFSET -3.10165 -0.590103 1.0647
                  CHANNELS 3 Zrotation Xrotation Yrotation
                  End Site
                  {
                    OFFSET -2.48547 -0.328903 0.83742
                  }
                }
              }
              JOINT rRing1
              {
                OFFSET -8.82822 0.546677 1.51678
                CHANNELS 3 Zrotation Xrotation Yrotation
                JOINT rRing2
                {
                  OFFSET -2.60934 -0.819778 -0.0198488
                  CHANNELS 3 Zrotation Xrotation Yrotation
                  End Site
                  {
                    OFFSET -2.33842 -0.294052 0.168128
                  }
                }
              }
              JOINT rPinky1
              {
                OFFSET -8.27202 -0.0477905 -0.4584
                CHANNELS 3 Zrotation Xrotation Yrotation
                JOINT rPinky2
                {
                  OFFSET -1.82734 -0.647385 -0.700984
                  CHANNELS 3 Zrotation Xrotation Yrotation
                  End Site
                  {
                    OFFSET -1.69225 -0.51767 -0.607171
                  }
                }
              }
            }
          }
        }
      }
      JOINT lCollar
      {
        OFFSET 2.68224 19.2634 -4.8768
        CHANNELS 3 Zrotation Xrotation Yrotation
        JOINT lShldr
        {
          OFFSET 8.77824 -1.95073 1.46304
          CHANNELS 3 Zrotation Xrotation Yrotation
          JOINT lForeArm
          {
            OFFSET 28.1742 -1.7115 0.48768
            CHANNELS 3 Zrotation Xrotation Yrotation
            JOINT lHand
            {
              OFFSET 22.5879 0.773209 7.07136
              CHANNELS 3 Zrotation Xrotation Yrotation
              JOINT lThumb1
              {
                OFFSET 1.2192 -0.487915 3.41376
                CHANNELS 3 Zrotation Xrotation Yrotation
                JOINT lThumb2
                {
                  OFFSET 3.37035 -0.52449 3.41376
                  CHANNELS 3 Zrotation Xrotation Yrotation
                  End Site
                  {
                    OFFSET 1.78271 -1.18214 1.43049
                  }
                }
              }
              JOINT lIndex1
              {
                OFFSET 7.75947 0.938293 5.60832
                CHANNELS 3 Zrotation Xrotation Yrotation
                JOINT lIndex2
                {
                  OFFSET 2.54057 -0.884171 1.56538
                  CHANNELS 3 Zrotation Xrotation Yrotation
                  End Site
                  {
                    OFFSET 1.62519 -0.234802 1.16502
                  }
                }
              }
              JOINT lMid1
              {
                OFFSET 8.24714 1.18213 3.41376
                CHANNELS 3 Zrotation Xrotation Yrotation
                JOINT lMid2
                {
                  OFFSET 3.10165 -0.590103 1.0647
                  CHANNELS 3 Zrotation Xrotation Yrotation
                  End Site
                  {
                    OFFSET 2.48547 -0.328903 0.83742
                  }
                }
              }
              JOINT lRing1
              {
                OFFSET 8.82822 0.546677 1.51678
                CHANNELS 3 Zrotation Xrotation Yrotation
                JOINT lRing2
                {
                  OFFSET 2.60934 -0.819778 -0.0198488
                  CHANNELS 3 Zrotation Xrotation Yrotation
                  End Site
                  {
                    OFFSET 2.33842 -0.294052 0.168128
                  }
                }
              }
              JOINT lPinky1
              {
                OFFSET 8.27202 -0.0477905 -0.4584
                CHANNELS 3 Zrotation Xrotation Yrotation
                JOINT lPinky2
                {
                  OFFSET 1.82734 -0.647385 -0.700984
                  CHANNELS 3 Zrotation Xrotation Yrotation
                  End Site
                  {
                    OFFSET 1.69225 -0.51767 -0.607171
                  }
                }
              }
            }
          }
        }
      }
    }
  }
  JOINT rButtock
  {
    OFFSET -8.77824 4.35084 1.2192
    CHANNELS 3 Zrotation Xrotation Yrotation
    JOINT rThigh
    {
      OFFSET 0 -1.70687 -2.19456
      CHANNELS 3 Zrotation Xrotation Yrotation
      JOINT rShin
      {
        OFFSET 0 -36.8199 0.73152
        CHANNELS 3 Zrotation Xrotation Yrotation
        JOINT rFoot
        {
          OFFSET 0.73152 -45.1104 -5.12064
          CHANNELS 3 Zrotation Xrotation Yrotation
          End Site
          {
            OFFSET -1.1221 -3.69964 12.103
          }
        }
      }
    }
  }
  JOINT lButtock
  {
    OFFSET 8.77824 4.35084 1.2192
    CHANNELS 3 Zrotation Xrotation Yrotation
    JOINT lThigh
    {
      OFFSET 0 -1.70687 -2.19456
      CHANNELS 3 Zrotation Xrotation Yrotation
      JOINT lShin
      {
        OFFSET 0 -36.8199 0.73152
        CHANNELS 3 Zrotation Xrotation Yrotation
        JOINT lFoot
        {
          OFFSET -0.73152 -45.1104 -5.12064
          CHANNELS 3 Zrotation Xrotation Yrotation
          End Site
          {
            OFFSET 1.1221 -3.69964 12.103
          }
        }
      }
    }
  }
}
MOTION
Frames:	6
Frame Time:	0.00833333
0.0 0.0 0.0 0.0 0.0 0.0 0.0 0.0 0.0 0.0 0.0 0.0 0.0 0.0 0.0 0.0 0.0 0.0 0.0 0.0 0.0 0.0 0.0 0.0 0.0 0.0 0.0 0.0 0.0 0.0 0.0 0.0 0.0 0.0 0.0 0.0 0.0 0.0 0.0 0.0 0.0 0.0 0.0 0.0 0.0 0.0 0.0 0.0 0.0 0.0 0.0 0.0 0.0 0.0 0.0 0.0 0.0 0.0 0.0 0.0 0.0 0.0 0.0 0.0 0.0 0.0 0.0 0.0 0.0 0.0 0.0 0.0 0.0 0.0 0.0 0.0 0.0 0.0 0.0 0.0 0.0 0.0 0.0 0.0 0.0 0.0 0.0 0.0 0.0 0.0 0.0 0.0 0.0 0.0 0.0 0.0 0.0 0.0 0.0 0.0 0.0 0.0 0.0 0.0 0.0 0.0 0.0 0.0 0.0 0.0 0.0 0.0 0.0 0.0 0.0 0.0 0.0 0.0 0.0 0.0 0.0 0.0 0.0 0.0 0.0 0.0 0.0 0.0 0.0 0.0 0.0 0.0
-0.0692 81.7335 -0.22829999999999998 -0.203099 30.65993 -1.23056 -1.399678 0.114231 132.84043 10.343982 -3.151053 -98.136825 -9.086224 -13.94211 -62.912232 35.149409 -18.131056 50.258966 23.202079 -14.170123 -62.385348 25.486027 -11.392278 -47.600739 -82.58134 -29.54938 164.546507 15.000291 -41.256067 9.257909 -17.629964 78.646516 179.235266 15.28551 -22.130486 -16.099269 1.709535 -20.408135 -3.571494 -133.133421 -3.93871 95.344372 -61.325258 25.856828 28.280991 -176.46338 -34.949869 110.585377 -163.332455 18.078137 119.886519 77.969174 -74.801305 49.308183 91.357008 -19.802206 -82.040944 13.952879 18.552314 -3.849312 -146.492304 57.64216 -36.621229 -15.589192 -32.230397 -17.269122 -65.976705 30.613294 -12.827087 -11.079165 2.257356 -7.129965 4.502153 -62.914599 -157.372803 -75.711591 -66.682733 -53.259233 -163.222777 -33.675567 -107.849908 152.627109 -13.084132 -101.8158 172.871547 -15.604507 -124.165031 -175.495772 -43.969605 -102.530545 -10.300976 -55.843025 -8.130193 -8.979219 -10.961696 6.329715 90.666096 58.892763 82.442973 -134.931588 -31.356563 48.876276 -78.759608 -42.422637 69.309102 -116.71446 83.429241 74.865002 -46.658841 -26.308543 -63.477688 4.331344 53.848506 -19.356009 4.275525 -4.419993 60.690124 -70.23331 41.414484 84.896983 -22.414608 50.49909 -151.606998 0.217655 52.751751 -179.847371 3.25958 6.318623 146.766092 71.214411 46.239402 -89.398125
-0.5806 83.5398 -0.064 6.702391 -27.172325 2.677755 -2.856386 -5.456235 -97.37295 6.843221 -1.284411 96.061261 -12.628986 19.269928 -28.584594 21.912342 -15.322785 9.379592 1.143176 0.06464 6.472408 5.125368 -0.245486 -5.480673 -143.16639 42.698888 143.37289 159.243351 65.783329 -163.388335 -67.457831 52.931957 129.964465 4.68565 -25.358447 -1.05021 -174.190899 -11.217269 90.080656 -130.588197 9.525096 66.408435 -122.838579 25.390482 103.289495 -10.798691 29.670981 -3.537505 9.504558 -31.335579 0.05658 -3.228388 4.978636 -4.617208 -146.228028 0.808858 175.277889 -153.546472 -9.671902 178.773398 -45.462279 -54.371084 -36.325109 -124.398813 -25.000413 -120.81271 -4.259582 -7.932468 2.491126 -80.007757 9.557958 13.774812 177.970511 8.181594 -30.364553 -167.050501 -24.392743 -142.609865 -0.318179 -4.73931 -1.646604 -12.999832 -30.779845 9.606374 3.504444 -11.382607 4.199727 74.182716 39.506561 -62.275064 1.981487 1.389505 2.100159 158.653377 10.002018 -135.053555 148.83239 20.499645 -179.861838 158.775088 25.456991 176.214165 -174.160555 72.86597 125.870133 2.824206 -14.853686 10.017807 -179.667815 72.003724 -0.126669 173.66646 29.722704 -158.201902 -33.230333 -41.594405 -109.974162 -97.086997 -32.98709 177.670262 -0.287764 3.22366 -0.488882 -6.384487 -24.923631 175.51721 -7.174161 -50.6596 -98.743373 -125.353566 61.380772 31.48119
-2.7868 82.92620000000001 0.5982999999999999 11.614501 -28.028469 -2.871065 -9.7181 -4.502375 119.94798 -4.767683 5.750926 -116.095566 -15.983411 31.33099 -82.763802 42.030045 13.868901 60.210813 5.044781 -0.11577 -2.62755 5.040002 0.032776 0.744718 -159.965666 -66.777175 173.991796 -4.469386 73.359189 41.097357 -54.784704 1.892789 56.333779 13.503464 -44.05865 2.516279 -175.158287 -9.452592 89.252728 -49.974282 -10.273288 11.527178 -0.73033 -4.946105 -0.523522 -57.530825 45.15309 40.737782 -161.984841 2.426843 140.756434 161.221351 -64.869616 129.211433 -5.813562 0.482292 0.655055 -154.323009 1.325258 170.655891 -18.147657 -19.575268 -12.657855 4.820862 -15.616536 0.365043 143.029126 36.711396 -148.079363 -104.432574 -8.031821 -121.965339 6.931615 -24.319769 -108.550976 3.687178 19.765394 1.688801 -14.387717 -15.804564 -2.580219 -10.164484 -30.11909 17.678487 -5.143322 -13.323026 -1.357638 -160.351925 -59.237195 -95.400544 163.521712 -10.942295 -141.239779 175.916496 -48.808254 -143.280682 145.322095 1.361787 -179.1525 -43.345906 78.097103 31.782297 7.619789 -12.65239 4.405872 39.405299 -47.517981 39.358206 1.526453 1.929303 1.448485 -16.333048 -41.454341 66.72432 56.543025 -2.121593 74.913792 15.998108 21.298293 173.62608 -1.973027 0.422608 -0.601961 -7.054804 -14.451583 99.647793 46.176906 -3.406822 -93.469529 68.784128 -13.949272 -6.510505
-6.0463000000000005 82.4408 1.9424000000000001 10.192171 -30.053589 -2.688232 -8.900352 -1.700696 -32.618848 -0.090319 -9.699317 32.350112 5.032853 34.961973 125.860898 -41.818552 21.893579 -136.061461 2.065447 -0.064394 -3.571042 4.324881 0.016232 0.429874 6.222505 -40.013633 -7.822478 -153.212743 3.623771 138.72 179.131641 11.832333 -124.712076 -11.032963 25.321568 0.924954 3.170551 -2.08794 2.993899 -2.152231 -3.234168 0.892755 -142.160647 -3.598915 113.180672 -2.557833 30.659365 -0.188008 -4.907854 7.899375 3.776566 -49.138107 59.500771 42.596988 -149.288675 0.150139 -179.477656 -151.438749 -44.163086 -167.440951 -98.064548 -47.600772 -92.539691 -133.282536 -9.992219 -134.414701 149.947751 26.00692 -153.01674 50.429697 -21.265118 -50.273116 -179.014179 -17.989108 69.671094 8.270226 41.282764 -2.66026 168.190479 -5.507612 -86.480896 143.532659 4.078671 -70.273499 -0.020855 2.420652 -1.046426 167.829084 -16.650048 -104.700086 -0.4678 -10.395597 2.153647 165.515611 -31.351926 -144.426891 139.740709 47.059389 -167.391948 161.752455 -11.148508 173.030549 7.880752 -13.884873 9.616785 145.825512 13.27549 145.629906 -19.68814 4.035697 -15.82356 20.964668 -30.508106 48.434874 44.353406 22.207891 68.955538 -141.478995 -2.415274 173.83941 0.29695 -0.417043 -0.359339 -2.21912 -18.600948 -151.555815 -25.273813 -50.427156 161.70318 159.787087 -34.846329 -3.445032
-9.4078 81.5138 2.7803 5.821558 -29.144621 -2.10974 -9.392751 -1.831414 97.643449 -4.937363 -0.840638 -101.576131 3.927658 27.908497 90.581368 -38.907226 -4.256907 -111.820517 7.309128 -0.208719 -3.266952 5.428174 -0.378594 -7.973476 -151.23297 11.427602 158.089029 -14.827028 -48.501158 -35.89942 -3.454831 2.375352 -89.007124 166.074905 -35.172961 141.021858 10.735668 -8.845013 1.76948 7.363469 -23.337432 -14.49855 -147.631184 -15.930813 115.727231 -148.480302 -10.073597 115.202103 -147.388611 22.910574 134.322514 -164.364272 -21.479882 148.187004 -149.051587 0.198573 -179.754843 -170.401997 79.24909 178.149761 -137.125307 -11.744531 -130.850615 -142.160123 11.934431 -134.294698 8.229846 29.690367 -8.686901 -82.088107 16.118607 -12.061641 70.658835 -47.09045 -60.93282 -11.867465 -19.277849 -7.590842 179.952493 -15.167504 -89.10708 -1.630761 -60.600187 -5.727898 149.35456 -20.550346 -125.739728 11.726846 53.812989 -4.275153 -3.569435 -24.030416 3.02367 166.207141 -38.450053 -147.368387 141.67864 3.80923 178.824618 132.308509 -52.301102 157.284181 156.699854 41.874792 145.173781 -35.665093 70.175477 4.800086 9.516319 3.654496 4.119764 -8.303015 -29.159612 -29.296495 -13.332398 36.551003 -57.659378 19.16197 -9.971579 48.051744 165.481548 74.331811 12.197781 -160.03812 44.747133 -129.973416 -67.620209 -27.711116 103.556776 80.948941 -16.779288 -29.527079
